<?xml version="1.0" encoding="UTF-8" standalone="no"?>
<!DOCTYPE svg PUBLIC "-//W3C//DTD SVG 1.1//EN" "http://www.w3.org/Graphics/SVG/1.1/DTD/svg11.dtd">
<svg width="100%" height="100%" viewBox="0 0 58 46" version="1.1" xmlns="http://www.w3.org/2000/svg" xmlns:xlink="http://www.w3.org/1999/xlink" xml:space="preserve" xmlns:serif="http://www.serif.com/" style="fill-rule:evenodd;clip-rule:evenodd;stroke-linejoin:round;stroke-miterlimit:2;">
    <g transform="matrix(1,0,0,1,-923.43,-1324.52)">
        <g transform="matrix(0.0505303,0,0,0.01027,907.849,1320.35)">
            <path d="M836.974,3245.7L836.974,4462.83C836.974,4572.71 828.256,4667.8 810.819,4748.1C793.382,4828.39 772.733,4868.54 748.872,4868.54L396.461,4868.54C372.6,4868.54 351.951,4828.39 334.514,4748.1C317.077,4667.8 308.359,4572.71 308.359,4462.83L308.359,3245.7C308.359,3135.82 317.077,3040.73 334.514,2960.43C351.951,2880.13 372.6,2839.98 396.461,2839.98L748.872,2839.98C772.733,2839.98 793.382,2880.13 810.819,2960.43C828.256,3040.73 836.974,3135.82 836.974,3245.7ZM836.974,811.424L836.974,2028.56C836.974,2138.44 828.256,2233.53 810.819,2313.83C793.382,2394.12 772.733,2434.27 748.872,2434.27L396.461,2434.27C372.6,2434.27 351.951,2394.12 334.514,2313.83C317.077,2233.53 308.359,2138.44 308.359,2028.56L308.359,811.424C308.359,701.543 317.077,606.455 334.514,526.158C351.951,445.86 372.6,405.712 396.461,405.712L748.872,405.712C772.733,405.712 793.382,445.86 810.819,526.158C828.256,606.455 836.974,701.543 836.974,811.424ZM1453.69,3245.7L1453.69,4462.83C1453.69,4572.71 1444.97,4667.8 1427.54,4748.1C1410.1,4828.39 1389.45,4868.54 1365.59,4868.54L1013.18,4868.54C989.318,4868.54 968.669,4828.39 951.232,4748.1C933.795,4667.8 925.077,4572.71 925.077,4462.83L925.077,3245.7C925.077,3135.82 933.795,3040.73 951.232,2960.43C968.669,2880.13 989.318,2839.98 1013.18,2839.98L1365.59,2839.98C1389.45,2839.98 1410.1,2880.13 1427.54,2960.43C1444.97,3040.73 1453.69,3135.82 1453.69,3245.7ZM1453.69,811.424L1453.69,2028.56C1453.69,2138.44 1444.97,2233.53 1427.54,2313.83C1410.1,2394.12 1389.45,2434.27 1365.59,2434.27L1013.18,2434.27C989.318,2434.27 968.669,2394.12 951.232,2313.83C933.795,2233.53 925.077,2138.44 925.077,2028.56L925.077,811.424C925.077,701.543 933.795,606.455 951.232,526.158C968.669,445.86 989.318,405.712 1013.18,405.712L1365.59,405.712C1389.45,405.712 1410.1,445.86 1427.54,526.158C1444.97,606.455 1453.69,701.543 1453.69,811.424Z" style="fill:rgb(38,38,38);fill-rule:nonzero;"/>
        </g>
    </g>
</svg>
