<?xml version="1.0" encoding="UTF-8" standalone="no"?>
<!DOCTYPE svg PUBLIC "-//W3C//DTD SVG 1.1//EN" "http://www.w3.org/Graphics/SVG/1.1/DTD/svg11.dtd">
<svg width="100%" height="100%" viewBox="0 0 59 46" version="1.1" xmlns="http://www.w3.org/2000/svg" xmlns:xlink="http://www.w3.org/1999/xlink" xml:space="preserve" xmlns:serif="http://www.serif.com/" style="fill-rule:evenodd;clip-rule:evenodd;stroke-linejoin:round;stroke-miterlimit:2;">
    <g transform="matrix(1,0,0,1,-924.351,-1659.84)">
        <g transform="matrix(0.0472934,0,0,0.01027,909.768,1655.67)">
            <path d="M660.769,3955.69L660.769,4564.26C660.769,4648.78 654.345,4720.63 641.497,4779.79C628.648,4838.96 613.047,4868.54 594.692,4868.54L374.436,4868.54C356.081,4868.54 340.48,4838.96 327.631,4779.79C314.783,4720.63 308.359,4648.78 308.359,4564.26L308.359,3955.69C308.359,3871.17 314.783,3799.32 327.631,3740.16C340.48,3680.99 356.081,3651.41 374.436,3651.41L594.692,3651.41C613.047,3651.41 628.648,3680.99 641.497,3740.16C654.345,3799.32 660.769,3871.17 660.769,3955.69ZM660.769,2332.84L660.769,2941.41C660.769,3025.93 654.345,3097.78 641.497,3156.95C628.648,3216.11 613.047,3245.7 594.692,3245.7L374.436,3245.7C356.081,3245.7 340.48,3216.11 327.631,3156.95C314.783,3097.78 308.359,3025.93 308.359,2941.41L308.359,2332.84C308.359,2248.32 314.783,2176.47 327.631,2117.31C340.48,2058.14 356.081,2028.56 374.436,2028.56L594.692,2028.56C613.047,2028.56 628.648,2058.14 641.497,2117.31C654.345,2176.47 660.769,2248.32 660.769,2332.84ZM1101.28,3955.69L1101.28,4564.26C1101.28,4648.78 1094.86,4720.63 1082.01,4779.79C1069.16,4838.96 1053.56,4868.54 1035.2,4868.54L814.949,4868.54C796.594,4868.54 780.992,4838.96 768.144,4779.79C755.296,4720.63 748.872,4648.78 748.872,4564.26L748.872,3955.69C748.872,3871.17 755.296,3799.32 768.144,3740.16C780.992,3680.99 796.594,3651.41 814.949,3651.41L1035.2,3651.41C1053.56,3651.41 1069.16,3680.99 1082.01,3740.16C1094.86,3799.32 1101.28,3871.17 1101.28,3955.69ZM660.769,709.996L660.769,1318.56C660.769,1403.09 654.345,1474.93 641.497,1534.1C628.648,1593.26 613.047,1622.85 594.692,1622.85L374.436,1622.85C356.081,1622.85 340.48,1593.26 327.631,1534.1C314.783,1474.93 308.359,1403.09 308.359,1318.56L308.359,709.996C308.359,625.472 314.783,553.628 327.631,494.461C340.48,435.295 356.081,405.712 374.436,405.712L594.692,405.712C613.047,405.712 628.648,435.295 641.497,494.461C654.345,553.628 660.769,625.472 660.769,709.996ZM1101.28,2332.84L1101.28,2941.41C1101.28,3025.93 1094.86,3097.78 1082.01,3156.95C1069.16,3216.11 1053.56,3245.7 1035.2,3245.7L814.949,3245.7C796.594,3245.7 780.992,3216.11 768.144,3156.95C755.296,3097.78 748.872,3025.93 748.872,2941.41L748.872,2332.84C748.872,2248.32 755.296,2176.47 768.144,2117.31C780.992,2058.14 796.594,2028.56 814.949,2028.56L1035.2,2028.56C1053.56,2028.56 1069.16,2058.14 1082.01,2117.31C1094.86,2176.47 1101.28,2248.32 1101.28,2332.84ZM1541.8,3955.69L1541.8,4564.26C1541.8,4648.78 1535.37,4720.63 1522.52,4779.79C1509.67,4838.96 1494.07,4868.54 1475.72,4868.54L1255.46,4868.54C1237.11,4868.54 1221.51,4838.96 1208.66,4779.79C1195.81,4720.63 1189.38,4648.78 1189.38,4564.26L1189.38,3955.69C1189.38,3871.17 1195.81,3799.32 1208.66,3740.16C1221.51,3680.99 1237.11,3651.41 1255.46,3651.41L1475.72,3651.41C1494.07,3651.41 1509.67,3680.99 1522.52,3740.16C1535.37,3799.32 1541.8,3871.17 1541.8,3955.69ZM1101.28,709.996L1101.28,1318.56C1101.28,1403.09 1094.86,1474.93 1082.01,1534.1C1069.16,1593.26 1053.56,1622.85 1035.2,1622.85L814.949,1622.85C796.594,1622.85 780.992,1593.26 768.144,1534.1C755.296,1474.93 748.872,1403.09 748.872,1318.56L748.872,709.996C748.872,625.472 755.296,553.628 768.144,494.461C780.992,435.295 796.594,405.712 814.949,405.712L1035.2,405.712C1053.56,405.712 1069.16,435.295 1082.01,494.461C1094.86,553.628 1101.28,625.472 1101.28,709.996ZM1541.8,2332.84L1541.8,2941.41C1541.8,3025.93 1535.37,3097.78 1522.52,3156.95C1509.67,3216.11 1494.07,3245.7 1475.72,3245.7L1255.46,3245.7C1237.11,3245.7 1221.51,3216.11 1208.66,3156.95C1195.81,3097.78 1189.38,3025.93 1189.38,2941.41L1189.38,2332.84C1189.38,2248.32 1195.81,2176.47 1208.66,2117.31C1221.51,2058.14 1237.11,2028.56 1255.46,2028.56L1475.72,2028.56C1494.07,2028.56 1509.67,2058.14 1522.52,2117.31C1535.37,2176.47 1541.8,2248.32 1541.8,2332.84ZM1541.8,709.996L1541.8,1318.56C1541.8,1403.09 1535.37,1474.93 1522.52,1534.1C1509.67,1593.26 1494.07,1622.85 1475.72,1622.85L1255.46,1622.85C1237.11,1622.85 1221.51,1593.26 1208.66,1534.1C1195.81,1474.93 1189.38,1403.09 1189.38,1318.56L1189.38,709.996C1189.38,625.472 1195.81,553.628 1208.66,494.461C1221.51,435.295 1237.11,405.712 1255.46,405.712L1475.72,405.712C1494.07,405.712 1509.67,435.295 1522.52,494.461C1535.37,553.628 1541.8,625.472 1541.8,709.996Z" style="fill:rgb(38,38,38);fill-rule:nonzero;"/>
        </g>
    </g>
</svg>
