<?xml version="1.0" encoding="UTF-8" standalone="no"?>
<!DOCTYPE svg PUBLIC "-//W3C//DTD SVG 1.1//EN" "http://www.w3.org/Graphics/SVG/1.1/DTD/svg11.dtd">
<svg width="100%" height="100%" viewBox="0 0 59 46" version="1.1" xmlns="http://www.w3.org/2000/svg" xmlns:xlink="http://www.w3.org/1999/xlink" xml:space="preserve" xmlns:serif="http://www.serif.com/" style="fill-rule:evenodd;clip-rule:evenodd;stroke-linejoin:round;stroke-miterlimit:2;">
    <g transform="matrix(1,0,0,1,-924.351,-1854.34)">
        <g transform="matrix(1,0,0,1,-87.9242,18.1193)">
            <g transform="matrix(1,0,0,1,25.1884,0)">
                <g transform="matrix(0.286114,0,0,0.362027,690.486,1171.46)">
                    <path d="M1077.93,1841.94C1077.93,1838.78 1074.68,1836.22 1070.68,1836.22L1043.9,1836.22C1039.9,1836.22 1036.65,1838.78 1036.65,1841.94L1036.65,1853.4C1036.65,1856.57 1039.9,1859.13 1043.9,1859.13L1070.68,1859.13C1074.68,1859.13 1077.93,1856.57 1077.93,1853.4L1077.93,1841.94Z" style="fill:rgb(39,37,37);"/>
                </g>
                <g transform="matrix(0.286114,0,0,0.362027,705.994,1171.46)">
                    <path d="M1077.93,1841.94C1077.93,1838.78 1074.68,1836.22 1070.68,1836.22L1043.9,1836.22C1039.9,1836.22 1036.65,1838.78 1036.65,1841.94L1036.65,1853.4C1036.65,1856.57 1039.9,1859.13 1043.9,1859.13L1070.68,1859.13C1074.68,1859.13 1077.93,1856.57 1077.93,1853.4L1077.93,1841.94Z" style="fill:rgb(39,37,37);"/>
                </g>
                <g transform="matrix(0.286114,0,0,0.362027,721.501,1171.46)">
                    <path d="M1077.93,1841.94C1077.93,1838.78 1074.68,1836.22 1070.68,1836.22L1043.9,1836.22C1039.9,1836.22 1036.65,1838.78 1036.65,1841.94L1036.65,1853.4C1036.65,1856.57 1039.9,1859.13 1043.9,1859.13L1070.68,1859.13C1074.68,1859.13 1077.93,1856.57 1077.93,1853.4L1077.93,1841.94Z" style="fill:rgb(39,37,37);"/>
                </g>
                <g transform="matrix(0.286114,0,0,0.362027,737.009,1171.46)">
                    <path d="M1077.93,1841.94C1077.93,1838.78 1074.68,1836.22 1070.68,1836.22L1043.9,1836.22C1039.9,1836.22 1036.65,1838.78 1036.65,1841.94L1036.65,1853.4C1036.65,1856.57 1039.9,1859.13 1043.9,1859.13L1070.68,1859.13C1074.68,1859.13 1077.93,1856.57 1077.93,1853.4L1077.93,1841.94Z" style="fill:rgb(39,37,37);"/>
                </g>
            </g>
            <g transform="matrix(1,0,0,1,25.1884,-2.10792)">
                <g transform="matrix(0.286114,0,0,0.362027,690.486,1186.08)">
                    <path d="M1077.93,1841.94C1077.93,1838.78 1074.68,1836.22 1070.68,1836.22L1043.9,1836.22C1039.9,1836.22 1036.65,1838.78 1036.65,1841.94L1036.65,1853.4C1036.65,1856.57 1039.9,1859.13 1043.9,1859.13L1070.68,1859.13C1074.68,1859.13 1077.93,1856.57 1077.93,1853.4L1077.93,1841.94Z" style="fill:rgb(39,37,37);"/>
                </g>
                <g transform="matrix(0.286114,0,0,0.362027,705.994,1186.08)">
                    <path d="M1077.93,1841.94C1077.93,1838.78 1074.68,1836.22 1070.68,1836.22L1043.9,1836.22C1039.9,1836.22 1036.65,1838.78 1036.65,1841.94L1036.65,1853.4C1036.65,1856.57 1039.9,1859.13 1043.9,1859.13L1070.68,1859.13C1074.68,1859.13 1077.93,1856.57 1077.93,1853.4L1077.93,1841.94Z" style="fill:rgb(39,37,37);"/>
                </g>
                <g transform="matrix(0.286114,0,0,0.362027,721.501,1186.08)">
                    <path d="M1077.93,1841.94C1077.93,1838.78 1074.68,1836.22 1070.68,1836.22L1043.9,1836.22C1039.9,1836.22 1036.65,1838.78 1036.65,1841.94L1036.65,1853.4C1036.65,1856.57 1039.9,1859.13 1043.9,1859.13L1070.68,1859.13C1074.68,1859.13 1077.93,1856.57 1077.93,1853.4L1077.93,1841.94Z" style="fill:rgb(39,37,37);"/>
                </g>
                <g transform="matrix(0.286114,0,0,0.362027,737.009,1186.08)">
                    <path d="M1077.93,1841.94C1077.93,1838.78 1074.68,1836.22 1070.68,1836.22L1043.9,1836.22C1039.9,1836.22 1036.65,1838.78 1036.65,1841.94L1036.65,1853.4C1036.65,1856.57 1039.9,1859.13 1043.9,1859.13L1070.68,1859.13C1074.68,1859.13 1077.93,1856.57 1077.93,1853.4L1077.93,1841.94Z" style="fill:rgb(39,37,37);"/>
                </g>
            </g>
            <g transform="matrix(1,0,0,1,25.1884,-4.21584)">
                <g transform="matrix(0.286114,0,0,0.362027,690.486,1200.7)">
                    <path d="M1077.93,1841.94C1077.93,1838.78 1074.68,1836.22 1070.68,1836.22L1043.9,1836.22C1039.9,1836.22 1036.65,1838.78 1036.65,1841.94L1036.65,1853.4C1036.65,1856.57 1039.9,1859.13 1043.9,1859.13L1070.68,1859.13C1074.68,1859.13 1077.93,1856.57 1077.93,1853.4L1077.93,1841.94Z" style="fill:rgb(39,37,37);"/>
                </g>
                <g transform="matrix(0.286114,0,0,0.362027,705.994,1200.7)">
                    <path d="M1077.93,1841.94C1077.93,1838.78 1074.68,1836.22 1070.68,1836.22L1043.9,1836.22C1039.9,1836.22 1036.65,1838.78 1036.65,1841.94L1036.65,1853.4C1036.65,1856.57 1039.9,1859.13 1043.9,1859.13L1070.68,1859.13C1074.68,1859.13 1077.93,1856.57 1077.93,1853.4L1077.93,1841.94Z" style="fill:rgb(39,37,37);"/>
                </g>
                <g transform="matrix(0.286114,0,0,0.362027,721.501,1200.7)">
                    <path d="M1077.93,1841.94C1077.93,1838.78 1074.68,1836.22 1070.68,1836.22L1043.9,1836.22C1039.9,1836.22 1036.65,1838.78 1036.65,1841.94L1036.65,1853.4C1036.65,1856.57 1039.9,1859.13 1043.9,1859.13L1070.68,1859.13C1074.68,1859.13 1077.93,1856.57 1077.93,1853.4L1077.93,1841.94Z" style="fill:rgb(39,37,37);"/>
                </g>
                <g transform="matrix(0.286114,0,0,0.362027,737.009,1200.7)">
                    <path d="M1077.93,1841.94C1077.93,1838.78 1074.68,1836.22 1070.68,1836.22L1043.9,1836.22C1039.9,1836.22 1036.65,1838.78 1036.65,1841.94L1036.65,1853.4C1036.65,1856.57 1039.9,1859.13 1043.9,1859.13L1070.68,1859.13C1074.68,1859.13 1077.93,1856.57 1077.93,1853.4L1077.93,1841.94Z" style="fill:rgb(39,37,37);"/>
                </g>
            </g>
            <g transform="matrix(1,0,0,1,25.1884,2.27374e-13)">
                <g transform="matrix(0.286114,0,0,0.362027,690.486,1208.99)">
                    <path d="M1077.93,1841.94C1077.93,1838.78 1074.68,1836.22 1070.68,1836.22L1043.9,1836.22C1039.9,1836.22 1036.65,1838.78 1036.65,1841.94L1036.65,1853.4C1036.65,1856.57 1039.9,1859.13 1043.9,1859.13L1070.68,1859.13C1074.68,1859.13 1077.93,1856.57 1077.93,1853.4L1077.93,1841.94Z" style="fill:rgb(39,37,37);"/>
                </g>
                <g transform="matrix(0.286114,0,0,0.362027,705.994,1208.99)">
                    <path d="M1077.93,1841.94C1077.93,1838.78 1074.68,1836.22 1070.68,1836.22L1043.9,1836.22C1039.9,1836.22 1036.65,1838.78 1036.65,1841.94L1036.65,1853.4C1036.65,1856.57 1039.9,1859.13 1043.9,1859.13L1070.68,1859.13C1074.68,1859.13 1077.93,1856.57 1077.93,1853.4L1077.93,1841.94Z" style="fill:rgb(39,37,37);"/>
                </g>
                <g transform="matrix(0.286114,0,0,0.362027,721.501,1208.99)">
                    <path d="M1077.93,1841.94C1077.93,1838.78 1074.68,1836.22 1070.68,1836.22L1043.9,1836.22C1039.9,1836.22 1036.65,1838.78 1036.65,1841.94L1036.65,1853.4C1036.65,1856.57 1039.9,1859.13 1043.9,1859.13L1070.68,1859.13C1074.68,1859.13 1077.93,1856.57 1077.93,1853.4L1077.93,1841.94Z" style="fill:rgb(39,37,37);"/>
                </g>
                <g transform="matrix(0.286114,0,0,0.362027,737.009,1208.99)">
                    <path d="M1077.93,1841.94C1077.93,1838.78 1074.68,1836.22 1070.68,1836.22L1043.9,1836.22C1039.9,1836.22 1036.65,1838.78 1036.65,1841.94L1036.65,1853.4C1036.65,1856.57 1039.9,1859.13 1043.9,1859.13L1070.68,1859.13C1074.68,1859.13 1077.93,1856.57 1077.93,1853.4L1077.93,1841.94Z" style="fill:rgb(39,37,37);"/>
                </g>
            </g>
        </g>
    </g>
</svg>
