<?xml version="1.0" encoding="UTF-8" standalone="no"?>
<!DOCTYPE svg PUBLIC "-//W3C//DTD SVG 1.1//EN" "http://www.w3.org/Graphics/SVG/1.1/DTD/svg11.dtd">
<svg width="100%" height="100%" viewBox="0 0 59 46" version="1.1" xmlns="http://www.w3.org/2000/svg" xmlns:xlink="http://www.w3.org/1999/xlink" xml:space="preserve" xmlns:serif="http://www.serif.com/" style="fill-rule:evenodd;clip-rule:evenodd;stroke-linejoin:round;stroke-miterlimit:2;">
    <g transform="matrix(1,0,0,1,-1103.14,-1559.18)">
        <g transform="matrix(1,0,0,1,-7.3331,35.9817)">
            <path d="M1168.8,1562.78L1168.8,1566.95C1168.8,1567.51 1168.6,1568 1168.18,1568.41C1167.77,1568.83 1167.28,1569.03 1166.72,1569.03L1112.55,1569.03C1111.99,1569.03 1111.5,1568.83 1111.09,1568.41C1110.67,1568 1110.47,1567.51 1110.47,1566.95L1110.47,1562.78C1110.47,1562.22 1110.67,1561.73 1111.09,1561.32C1111.5,1560.9 1111.99,1560.7 1112.55,1560.7L1166.72,1560.7C1167.28,1560.7 1167.77,1560.9 1168.18,1561.32C1168.6,1561.73 1168.8,1562.22 1168.8,1562.78ZM1144.81,1548.2L1166.72,1548.2C1167.28,1548.2 1167.77,1548.4 1168.18,1548.82C1168.6,1549.23 1168.8,1549.72 1168.8,1550.28L1168.8,1554.45C1168.8,1555.01 1168.6,1555.5 1168.18,1555.91C1167.77,1556.33 1167.28,1556.53 1166.72,1556.53L1112.55,1556.53C1111.99,1556.53 1111.5,1556.33 1111.09,1555.91C1110.67,1555.5 1110.47,1555.01 1110.47,1554.45L1110.47,1550.28C1110.47,1549.72 1110.67,1549.23 1111.09,1548.82C1111.5,1548.4 1111.99,1548.2 1112.55,1548.2L1134.46,1548.2C1135.9,1550.25 1137.31,1552.06 1138.3,1553.28C1138.98,1554.15 1140.28,1554.15 1140.98,1553.28C1141.96,1552.06 1143.37,1550.25 1144.81,1548.2ZM1131.77,1544.03L1112.55,1544.03C1111.99,1544.03 1111.5,1543.83 1111.09,1543.41C1110.67,1543 1110.47,1542.51 1110.47,1541.95L1110.47,1525.28L1110.47,1525.26C1110.48,1524.7 1110.68,1524.22 1111.09,1523.82C1111.5,1523.4 1111.99,1523.2 1112.55,1523.2L1166.72,1523.2C1167.28,1523.2 1167.77,1523.4 1168.18,1523.82C1168.6,1524.23 1168.8,1524.72 1168.8,1525.28L1168.8,1541.95C1168.8,1542.51 1168.6,1543 1168.18,1543.41C1167.77,1543.83 1167.28,1544.03 1166.72,1544.03L1147.5,1544.03C1149.2,1541.13 1150.5,1538.21 1150.5,1536.04C1150.5,1530.08 1145.64,1525.26 1139.64,1525.26C1133.63,1525.26 1128.77,1530.08 1128.77,1536.04C1128.77,1538.21 1130.07,1541.13 1131.77,1544.03ZM1139.64,1538.91C1141.62,1538.91 1143.26,1537.29 1143.26,1535.32C1143.26,1533.35 1141.62,1531.73 1139.64,1531.73C1137.65,1531.73 1136.01,1533.35 1136.01,1535.32C1136.01,1537.29 1137.65,1538.91 1139.64,1538.91Z" style="fill:rgb(38,38,38);fill-rule:nonzero;"/>
        </g>
        <g id="Layer-1" serif:id="Layer 1">
        </g>
    </g>
</svg>
