<?xml version="1.0" encoding="UTF-8" standalone="no"?>
<!DOCTYPE svg PUBLIC "-//W3C//DTD SVG 1.1//EN" "http://www.w3.org/Graphics/SVG/1.1/DTD/svg11.dtd">
<svg width="100%" height="100%" viewBox="0 0 59 46" version="1.1" xmlns="http://www.w3.org/2000/svg" xmlns:xlink="http://www.w3.org/1999/xlink" xml:space="preserve" xmlns:serif="http://www.serif.com/" style="fill-rule:evenodd;clip-rule:evenodd;stroke-linejoin:round;stroke-miterlimit:2;">
    <g transform="matrix(1,0,0,1,-923.43,-1550.21)">
        <g transform="matrix(0.0472934,0,0,0.01027,908.847,1546.04)">
            <path d="M1541.8,4259.97L1541.8,4665.69C1541.8,4720.63 1537.43,4768.17 1528.72,4808.32C1520,4848.47 1509.67,4868.54 1497.74,4868.54L352.41,4868.54C340.48,4868.54 330.155,4848.47 321.437,4808.32C312.718,4768.17 308.359,4720.63 308.359,4665.69L308.359,4259.97C308.359,4205.03 312.718,4157.49 321.437,4117.34C330.155,4077.19 340.48,4057.12 352.41,4057.12L1497.74,4057.12C1509.67,4057.12 1520,4077.19 1528.72,4117.34C1537.43,4157.49 1541.8,4205.03 1541.8,4259.97ZM1541.8,3042.84L1541.8,3448.55C1541.8,3503.49 1537.43,3551.03 1528.72,3591.18C1520,3631.33 1509.67,3651.41 1497.74,3651.41L352.41,3651.41C340.48,3651.41 330.155,3631.33 321.437,3591.18C312.718,3551.03 308.359,3503.49 308.359,3448.55L308.359,3042.84C308.359,2987.9 312.718,2940.35 321.437,2900.21C330.155,2860.06 340.48,2839.98 352.41,2839.98L1497.74,2839.98C1509.67,2839.98 1520,2860.06 1528.72,2900.21C1537.43,2940.35 1541.8,2987.9 1541.8,3042.84ZM1541.8,1825.7L1541.8,2231.41C1541.8,2286.36 1537.43,2333.9 1528.72,2374.05C1520,2414.2 1509.67,2434.27 1497.74,2434.27L352.41,2434.27C340.48,2434.27 330.155,2414.2 321.437,2374.05C312.718,2333.9 308.359,2286.36 308.359,2231.41L308.359,1825.7C308.359,1770.76 312.718,1723.22 321.437,1683.07C330.155,1642.92 340.48,1622.85 352.41,1622.85L1497.74,1622.85C1509.67,1622.85 1520,1642.92 1528.72,1683.07C1537.43,1723.22 1541.8,1770.76 1541.8,1825.7ZM1541.8,608.568L1541.8,1014.28C1541.8,1069.22 1537.43,1116.76 1528.72,1156.91C1520,1197.06 1509.67,1217.14 1497.74,1217.14L352.41,1217.14C340.48,1217.14 330.155,1197.06 321.437,1156.91C312.718,1116.76 308.359,1069.22 308.359,1014.28L308.359,608.568C308.359,553.628 312.718,506.083 321.437,465.935C330.155,425.786 340.48,405.712 352.41,405.712L1497.74,405.712C1509.67,405.712 1520,425.786 1528.72,465.935C1537.43,506.083 1541.8,553.628 1541.8,608.568Z" style="fill:rgb(38,38,38);fill-rule:nonzero;"/>
        </g>
    </g>
</svg>
