<?xml version="1.0" encoding="UTF-8" standalone="no"?>
<!DOCTYPE svg PUBLIC "-//W3C//DTD SVG 1.1//EN" "http://www.w3.org/Graphics/SVG/1.1/DTD/svg11.dtd">
<svg width="100%" height="100%" viewBox="0 0 59 46" version="1.1" xmlns="http://www.w3.org/2000/svg" xmlns:xlink="http://www.w3.org/1999/xlink" xml:space="preserve" xmlns:serif="http://www.serif.com/" style="fill-rule:evenodd;clip-rule:evenodd;stroke-linejoin:round;stroke-miterlimit:2;">
    <g transform="matrix(1,0,0,1,-1172.97,-1559.18)">
        <g transform="matrix(4.16667,0,0,4.16667,1172.97,1559.18)">
            <g transform="matrix(-1,0,0,1,7.001,5.3167)">
                <path d="M0.001,-1.929C0.534,-1.929 0.973,-1.493 0.973,-0.964C0.973,-0.436 0.534,0 0.001,0C-0.532,0 -0.972,-0.436 -0.972,-0.964C-0.972,-1.493 -0.532,-1.929 0.001,-1.929" style="fill:rgb(38,38,38);fill-rule:nonzero;"/>
            </g>
            <g transform="matrix(1,0,0,1,7.3594,1.8263)">
                <path d="M0,7.348C-0.187,7.58 -0.534,7.58 -0.719,7.348C-1.5,6.381 -3.276,4.035 -3.276,2.719C-3.276,1.12 -1.971,-0.175 -0.359,-0.175C1.252,-0.175 2.557,1.12 2.557,2.719C2.557,4.035 0.781,6.381 0,7.348M6.492,-1.678C6.393,-1.777 6.275,-1.826 6.141,-1.826L-6.859,-1.826C-6.995,-1.826 -7.112,-1.777 -7.211,-1.678C-7.309,-1.58 -7.358,-1.465 -7.359,-1.332L-7.359,8.674C-7.359,8.809 -7.31,8.926 -7.211,9.026C-7.112,9.123 -6.995,9.174 -6.859,9.174L6.141,9.174C6.275,9.174 6.393,9.123 6.492,9.026C6.592,8.926 6.641,8.809 6.641,8.674L6.641,-1.331C6.639,-1.465 6.59,-1.58 6.492,-1.678" style="fill:rgb(38,38,38);fill-rule:nonzero;"/>
            </g>
        </g>
    </g>
</svg>
